<mxfile host="app.diagrams.net" modified="2023-05-16T13:00:38.130Z" agent="Mozilla/5.0 (X11; Linux x86_64; rv:109.0) Gecko/20100101 Firefox/113.0" etag="nkEWd5wK6eejRX7ZeTKQ" version="21.3.2" type="device">
  <diagram name="Page-1" id="DQdkoyMO7DCpXJuzhWbH">
    <mxGraphModel dx="413" dy="555" grid="1" gridSize="10" guides="1" tooltips="1" connect="1" arrows="1" fold="1" page="1" pageScale="1" pageWidth="827" pageHeight="1169" math="0" shadow="0">
      <root>
        <mxCell id="0" />
        <mxCell id="1" parent="0" />
        <mxCell id="7miqH6uNTwI-oSamvEVk-1" value="filename : Arquivo" style="swimlane;fontStyle=0;childLayout=stackLayout;horizontal=1;startSize=30;horizontalStack=0;resizeParent=1;resizeParentMax=0;resizeLast=0;collapsible=1;marginBottom=0;whiteSpace=wrap;html=1;" parent="1" vertex="1">
          <mxGeometry x="240" y="220" width="140" height="30" as="geometry" />
        </mxCell>
        <mxCell id="7miqH6uNTwI-oSamvEVk-5" value="text : Texto" style="swimlane;fontStyle=0;childLayout=stackLayout;horizontal=1;startSize=30;horizontalStack=0;resizeParent=1;resizeParentMax=0;resizeLast=0;collapsible=1;marginBottom=0;whiteSpace=wrap;html=1;" parent="1" vertex="1">
          <mxGeometry x="240" y="300" width="140" height="30" as="geometry" />
        </mxCell>
        <mxCell id="7miqH6uNTwI-oSamvEVk-7" value="time : Tempo inicial" style="swimlane;fontStyle=0;childLayout=stackLayout;horizontal=1;startSize=30;horizontalStack=0;resizeParent=1;resizeParentMax=0;resizeLast=0;collapsible=1;marginBottom=0;whiteSpace=wrap;html=1;" parent="1" vertex="1">
          <mxGeometry x="80" y="390" width="180" height="60" as="geometry" />
        </mxCell>
        <mxCell id="7miqH6uNTwI-oSamvEVk-8" value="&lt;div align=&quot;center&quot;&gt;miliseconds = 0&lt;/div&gt;" style="text;strokeColor=none;fillColor=none;align=center;verticalAlign=middle;spacingLeft=4;spacingRight=4;overflow=hidden;points=[[0,0.5],[1,0.5]];portConstraint=eastwest;rotatable=0;whiteSpace=wrap;html=1;" parent="7miqH6uNTwI-oSamvEVk-7" vertex="1">
          <mxGeometry y="30" width="180" height="30" as="geometry" />
        </mxCell>
        <mxCell id="7miqH6uNTwI-oSamvEVk-9" value="time_next : Tempo final" style="swimlane;fontStyle=0;childLayout=stackLayout;horizontal=1;startSize=30;horizontalStack=0;resizeParent=1;resizeParentMax=0;resizeLast=0;collapsible=1;marginBottom=0;whiteSpace=wrap;html=1;" parent="1" vertex="1">
          <mxGeometry x="344" y="390" width="170" height="60" as="geometry" />
        </mxCell>
        <mxCell id="7miqH6uNTwI-oSamvEVk-10" value="&lt;div align=&quot;center&quot;&gt;miliseconds = 100&lt;/div&gt;" style="text;strokeColor=none;fillColor=none;align=center;verticalAlign=middle;spacingLeft=4;spacingRight=4;overflow=hidden;points=[[0,0.5],[1,0.5]];portConstraint=eastwest;rotatable=0;whiteSpace=wrap;html=1;" parent="7miqH6uNTwI-oSamvEVk-9" vertex="1">
          <mxGeometry y="30" width="170" height="30" as="geometry" />
        </mxCell>
        <mxCell id="7miqH6uNTwI-oSamvEVk-11" value="line : Linha do texto" style="swimlane;fontStyle=0;childLayout=stackLayout;horizontal=1;startSize=30;horizontalStack=0;resizeParent=1;resizeParentMax=0;resizeLast=0;collapsible=1;marginBottom=0;whiteSpace=wrap;html=1;" parent="1" vertex="1">
          <mxGeometry x="230" y="500" width="140" height="30" as="geometry" />
        </mxCell>
        <mxCell id="7miqH6uNTwI-oSamvEVk-14" value="" style="endArrow=none;html=1;rounded=0;entryX=0;entryY=0.5;entryDx=0;entryDy=0;" parent="1" target="7miqH6uNTwI-oSamvEVk-5" edge="1">
          <mxGeometry width="50" height="50" relative="1" as="geometry">
            <mxPoint x="170" y="390" as="sourcePoint" />
            <mxPoint x="290" y="350" as="targetPoint" />
            <Array as="points">
              <mxPoint x="170" y="315" />
            </Array>
          </mxGeometry>
        </mxCell>
        <mxCell id="7miqH6uNTwI-oSamvEVk-15" value="" style="endArrow=none;html=1;rounded=0;exitX=0.627;exitY=0.006;exitDx=0;exitDy=0;exitPerimeter=0;entryX=1;entryY=0.5;entryDx=0;entryDy=0;" parent="1" source="7miqH6uNTwI-oSamvEVk-9" target="7miqH6uNTwI-oSamvEVk-5" edge="1">
          <mxGeometry width="50" height="50" relative="1" as="geometry">
            <mxPoint x="260" y="360" as="sourcePoint" />
            <mxPoint x="310" y="310" as="targetPoint" />
            <Array as="points">
              <mxPoint x="450" y="315" />
            </Array>
          </mxGeometry>
        </mxCell>
        <mxCell id="7miqH6uNTwI-oSamvEVk-16" value="" style="endArrow=none;html=1;rounded=0;entryX=0.5;entryY=1;entryDx=0;entryDy=0;exitX=0.5;exitY=0;exitDx=0;exitDy=0;" parent="1" source="7miqH6uNTwI-oSamvEVk-5" target="7miqH6uNTwI-oSamvEVk-1" edge="1">
          <mxGeometry width="50" height="50" relative="1" as="geometry">
            <mxPoint x="260" y="320" as="sourcePoint" />
            <mxPoint x="310" y="270" as="targetPoint" />
          </mxGeometry>
        </mxCell>
        <mxCell id="7miqH6uNTwI-oSamvEVk-17" value="" style="endArrow=none;html=1;rounded=0;entryX=0.512;entryY=1.003;entryDx=0;entryDy=0;entryPerimeter=0;exitX=0;exitY=0.5;exitDx=0;exitDy=0;" parent="1" source="7miqH6uNTwI-oSamvEVk-11" target="7miqH6uNTwI-oSamvEVk-8" edge="1">
          <mxGeometry width="50" height="50" relative="1" as="geometry">
            <mxPoint x="250" y="490" as="sourcePoint" />
            <mxPoint x="300" y="440" as="targetPoint" />
            <Array as="points">
              <mxPoint x="172" y="515" />
            </Array>
          </mxGeometry>
        </mxCell>
        <mxCell id="7miqH6uNTwI-oSamvEVk-22" value="" style="endArrow=none;html=1;rounded=0;exitX=1;exitY=0.5;exitDx=0;exitDy=0;entryX=0.651;entryY=0.988;entryDx=0;entryDy=0;entryPerimeter=0;" parent="1" source="7miqH6uNTwI-oSamvEVk-11" target="7miqH6uNTwI-oSamvEVk-10" edge="1">
          <mxGeometry width="50" height="50" relative="1" as="geometry">
            <mxPoint x="390" y="500" as="sourcePoint" />
            <mxPoint x="440" y="450" as="targetPoint" />
            <Array as="points">
              <mxPoint x="456" y="515" />
            </Array>
          </mxGeometry>
        </mxCell>
      </root>
    </mxGraphModel>
  </diagram>
</mxfile>
